<?xml version="1.0" encoding="UTF-8"?><svg height="670" viewBox="0 0 800 670" width="800" xmlns="http://www.w3.org/2000/svg"><g fill-rule="evenodd"><path d="m478.56 54.42h25.44v28.21l14.11-11.29 14.1 11.29v-28.21h25.39a11.28 11.28 0 0 1 11.24 11.28v31h-2.84a11.2 11.2 0 0 0 -6.31 1.93 11.35 11.35 0 0 0 -3.05 3 11.2 11.2 0 0 0 -1.93 6.31v67.71a11.29 11.29 0 0 0 11.29 11.35h-87.44a11.28 11.28 0 0 1 -11.28-11.28v-110.02a11.28 11.28 0 0 1 11.28-11.28" fill="#bfddf7"/><path d="m554.73 175.73a11.26 11.26 0 0 0 8.47 10.88v.4h-50.78a11.28 11.28 0 0 1 -11.29-11.28v-39.5a11.29 11.29 0 0 1 11.29-11.29h11.28v19.75l8.46-5.64 8.47 5.64v-19.75h14.1z" fill="#99c9f1"/><path d="m611.16 187h-45.16a11.29 11.29 0 0 1 -11.29-11.28v-67.72a11.3 11.3 0 0 1 11.29-11.27h14.1v19.75l8.47-5.64 8.46 5.64v-19.75h14.11a11.29 11.29 0 0 1 11.3 11.27v67.71a11.28 11.28 0 0 1 -11.28 11.29" fill="#bfddf7"/><path d="m503.95 82.63 14.11-11.29 14.1 11.29v-31.04h-28.21z" fill="#99c9f1"/><path d="m512.42 181.37h5.64a2.82 2.82 0 1 0 0-5.64h-5.64a2.82 2.82 0 1 0 0 5.64" fill="#bfddf7"/><path d="m512.42 172.9h11.28a2.82 2.82 0 0 0 0-5.64h-11.28a2.82 2.82 0 1 0 0 5.64" fill="#bfddf7"/><path d="m566 181.37h5.64a2.82 2.82 0 1 0 0-5.64h-5.64a2.82 2.82 0 0 0 0 5.64" fill="#99c9f1"/><path d="m566 172.9h11.3a2.82 2.82 0 1 0 0-5.64h-11.3a2.82 2.82 0 0 0 0 5.64" fill="#99c9f1"/><path d="m628.08 203.94h-163.63v-16.93h163.63z" fill="#bfddf7"/><path d="m622.44 215.22h-22.57v-11.28h22.57z" fill="#99c9f1"/><path d="m492.67 215.22h-22.57v-11.28h22.57z" fill="#99c9f1"/><path d="m557.55 215.22h-22.57v-11.28h22.57z" fill="#99c9f1"/><path d="m580.12 116.48 8.47-5.64 8.46 5.64v-22.57h-16.93z" fill="#99c9f1"/><path d="m523.7 144.69 8.46-5.64 8.47 5.64v-22.57h-16.93z" fill="#e5f2fb"/><path d="m261.28 158.23h-61.85l2.46-20.23a5.21 5.21 0 0 1 5.81-4.54l58.81 7.16z" fill="#bfddf7"/></g><rect fill="#99c9f1" height="138.04" rx="2.86" transform="matrix(-.99660872 .0822864 -.0822864 -.99660872 542.85 412.59)" width="147.86" x="188.99" y="148.46"/><rect fill="#bfddf7" height="75.52" rx="2.14" transform="matrix(-.99430079 -.10661115 .10661115 -.99430079 490.15 509.89)" width="120.57" x="198.42" y="204.09"/><rect fill="#e5f2fb" height="75.52" rx="1.69" transform="matrix(-.97054853 -.24090567 .24090567 -.97054853 497.53 390.68)" width="75.52" x="234.89" y="127.17"/><path d="m144.81 164.87a8.33 8.33 0 1 1 -8.33-8.33 8.33 8.33 0 0 1 8.33 8.33" fill="#5ea4e6" fill-rule="evenodd"/><circle cx="202.48" cy="331.29" fill="#5ea4e6" r="15.11"/><circle cx="314.74" cy="331.29" fill="#5ea4e6" r="15.11"/><path d="m191.13 177.82c.81 9 1.23 18 1.51 26.93.18 4.48.22 9 .32 13.46l.11 13.46-.1 13.47c-.11 4.49-.14 9-.32 13.46-.29 9-.71 17.95-1.52 26.93-.8-9-1.22-17.95-1.51-26.93-.18-4.49-.21-9-.32-13.46l-.1-13.47.1-13.46c.11-4.49.15-9 .33-13.46.28-8.98.7-17.95 1.5-26.93z" fill="#76b4ea"/><path d="m361.13 204.57c-15.74.8-31.47 1.22-47.21 1.51-7.86.18-15.73.22-23.6.32l-23.6.11-23.6-.1c-7.86-.11-15.73-.15-23.6-.33-15.73-.28-31.46-.7-47.2-1.51 15.74-.81 31.47-1.23 47.2-1.51 7.87-.18 15.74-.22 23.6-.32l23.6-.11 23.6.11c7.87.11 15.74.15 23.6.32 15.74.29 31.47.71 47.21 1.51z" fill="#76b4ea"/><path d="m348.15 177.82a16.72 16.72 0 0 1 8.15 2 17 17 0 0 1 6.22 5.72 16.57 16.57 0 0 1 2.56 8.12v1.08l-.07 1.08a12.85 12.85 0 0 1 -.32 2.14c-.28 1.42-.7 2.74-1.05 4.11l-8.64 32.59-8.86 32.58-1.14 4.07-.55 2c-.21.68-.4 1.44-.69 2.13a17.59 17.59 0 0 1 -5.25 7.3 17.85 17.85 0 0 1 -8.17 3.84 24.55 24.55 0 0 1 -4.45.32h-4.22c-22.51.2-45 .27-67.53.35l-67.53.13h-1.61l-.3-1.55-10.7-53.83-10.5-53.84-.41-2.07h2.1l22.87.09 22.87.18 45.74.34 22.87.19 22.87.29c15.24.18 30.49.36 45.74.64zm0 0c-15.25.28-30.5.46-45.74.64l-22.87.29-22.87.19-45.74.34-22.87.18-22.87.09 1.69-2.07 10.86 53.83 10.74 53.84-1.89-1.54 67.53.12c22.51.09 45 .15 67.53.36h4.22a21.22 21.22 0 0 0 4-.21 15.2 15.2 0 0 0 7-3.16 15.28 15.28 0 0 0 4.58-6.18 19.73 19.73 0 0 0 .64-1.88l.58-2 1.18-4.06 9.39-32.43 9.52-32.4c.37-1.35.85-2.71 1.14-4.05a11.38 11.38 0 0 0 .35-2l.1-1c0-.34 0-.69 0-1a16.21 16.21 0 0 0 -2.25-7.86 16.54 16.54 0 0 0 -13.9-8z" fill="#76b4ea"/><path d="m330.45 177.82c.8 9 1.22 18 1.51 26.93.17 4.48.21 9 .32 13.46l.11 13.46-.11 13.47c-.1 4.49-.14 9-.32 13.46-.28 9-.7 17.95-1.51 26.93-.81-9-1.23-17.95-1.51-26.93-.18-4.49-.22-9-.33-13.46l-.1-13.47.11-13.46c.1-4.49.14-9 .32-13.46.29-8.98.71-17.95 1.51-26.93z" fill="#76b4ea"/><path d="m274.72 177.82c.81 9 1.22 18 1.51 26.93.18 4.48.22 9 .32 13.46l.11 13.46-.1 13.47c-.11 4.49-.14 9-.32 13.46-.29 9-.71 17.95-1.52 26.93-.8-9-1.23-17.95-1.51-26.93-.18-4.49-.21-9-.32-13.46l-.1-13.47.1-13.46c.11-4.49.15-9 .33-13.46.28-8.98.7-17.95 1.5-26.93z" fill="#76b4ea"/><path d="m246.86 177.82c.8 9 1.22 18 1.51 26.93.18 4.48.21 9 .32 13.46l.11 13.46-.11 13.47c-.1 4.49-.14 9-.32 13.46-.28 9-.7 17.95-1.51 26.93-.81-9-1.23-17.95-1.51-26.93-.18-4.49-.22-9-.32-13.46l-.11-13.47.11-13.46c.11-4.49.15-9 .32-13.46.29-8.98.71-17.95 1.51-26.93z" fill="#76b4ea"/><path d="m219 177.82c.8 9 1.22 18 1.5 26.93.18 4.48.22 9 .33 13.46l.1 13.46-.1 13.47c-.11 4.49-.14 9-.32 13.46-.28 9-.71 17.95-1.51 26.93-.81-9-1.23-17.95-1.52-26.93-.18-4.49-.21-9-.32-13.46l-.1-13.47.11-13.46c.1-4.49.14-9 .32-13.46.29-8.98.7-17.95 1.51-26.93z" fill="#76b4ea"/><path d="m302.59 178.3c.8 9 1.22 17.95 1.5 26.93.18 4.49.22 9 .33 13.46l.1 13.47-.1 13.46c-.11 4.49-.14 9-.32 13.46-.29 9-.71 17.95-1.51 26.93-.81-9-1.23-17.95-1.52-26.93-.18-4.49-.21-9-.32-13.46l-.1-13.46.11-13.47c.1-4.49.14-9 .32-13.46.28-8.98.7-17.95 1.51-26.93z" fill="#76b4ea"/><path d="m350.82 230.75c-14.48.8-28.95 1.22-43.43 1.51-7.23.18-14.47.22-21.71.32l-21.71.11-21.72-.1c-7.23-.11-14.47-.15-21.71-.33-14.48-.28-28.95-.7-43.43-1.51 14.48-.81 28.95-1.23 43.43-1.51 7.24-.18 14.48-.22 21.71-.32l21.72-.11 21.71.11c7.24.11 14.48.15 21.71.32 14.48.29 28.95.76 43.43 1.51z" fill="#76b4ea"/><path d="m348.21 258.15c-13.91.8-27.82 1.22-41.73 1.5-7 .18-13.91.22-20.86.33l-20.87.1-20.86-.1c-6.95-.11-13.91-.14-20.86-.32-13.91-.28-27.82-.71-41.73-1.51 13.91-.81 27.82-1.23 41.73-1.51 6.95-.18 13.91-.22 20.86-.33l20.86-.1 20.87.11c6.95.1 13.91.14 20.86.32 13.91.29 27.82.71 41.73 1.51z" fill="#76b4ea"/><path d="m138.21 165.13a21.54 21.54 0 0 1 10.16-1.13 21.87 21.87 0 0 1 9.88 3.69 20.4 20.4 0 0 1 6.8 8.13 21.9 21.9 0 0 1 2 10 56.67 56.67 0 0 0 -4.66-8.53 25.88 25.88 0 0 0 -6.36-6.46 28.62 28.62 0 0 0 -8.28-3.89 52.1 52.1 0 0 0 -9.54-1.81z" fill="#76b4ea"/><path d="m185.19 278.51c.62 2.31 1.27 4.61 1.87 6.93l1.81 6.95q1.78 7 3.47 13.93l-1.16-.94c5.75-.19 11.49-.27 17.23-.41l17.24-.24c11.49-.08 23-.12 34.46 0s23 .25 34.47.52 23 .68 34.47 1.36c-11.49.68-23 1-34.47 1.36s-23 .45-34.47.52-23 0-34.46 0l-17.24-.24c-5.74-.14-11.48-.22-17.23-.41h-1l-.17-.9q-1.31-7.06-2.52-14.14l-1.19-7.08c-.39-2.48-.74-4.85-1.11-7.21z" fill="#76b4ea"/><path d="m202.48 331.29a29 29 0 0 1 -2.61-5.91 46.62 46.62 0 0 1 -1.52-6.11 45 45 0 0 1 -.71-6.25 28.27 28.27 0 0 1 .38-6.45 28.31 28.31 0 0 1 2.62 5.91 47.4 47.4 0 0 1 2.22 12.36 28.3 28.3 0 0 1 -.38 6.45z" fill="#76b4ea"/><path d="m314.77 331.29a29 29 0 0 1 -2.61-5.91 48.3 48.3 0 0 1 -1.53-6.11 46.5 46.5 0 0 1 -.7-6.25 28.27 28.27 0 0 1 .38-6.45 28.31 28.31 0 0 1 2.62 5.91 47.4 47.4 0 0 1 2.22 12.36 28.3 28.3 0 0 1 -.38 6.45z" fill="#76b4ea"/><rect fill="#99c9f1" height="485.43" rx="4.01" width="269.78" x="262.32" y="101.92"/><rect fill="#fff" height="3.62" rx="1.32" width="57.87" x="361.52" y="124.28"/><circle cx="431.68" cy="125.73" fill="#fff" r="2.17"/><path d="m464.75 124.37v4.56a12.3 12.3 0 0 1 -12.3 12.3h-110.45a12.31 12.31 0 0 1 -12.31-12.3v-4.56h-54.19v441.41h243.42v-441.41z" fill="#fff"/><path d="m528.59 313.25a3.37 3.37 0 0 0 -.34.69 33 33 0 0 0 -2 7.4 77.57 77.57 0 0 0 -.92 8 62.56 62.56 0 0 0 -.14 6.71c.19 2.88 1.86 5.08 3.68 4.91s3.08-2.55 2.9-5.33c-.19-2.17-.51-4.34-.8-6.48-.35-2.6-.72-5.17-1-7.74a51.7 51.7 0 0 1 -.45-7.19 4.07 4.07 0 0 1 .08-.67c0-.4 0-.8-.24-.93s-.54.23-.77.63z" fill="#ffcca9"/><path d="m495.17 156.14h-195.92v83.28h11.58l-2.58 19.53 18.7-19.53h168.22z" fill="#efefef"/><path d="m299.25 275h195.92v83.29h-11.59l2.58 19.52-18.7-19.52h-168.21z" fill="#efefef"/><path d="m494.39 388.93h-195.91v83.28h11.58l-2.58 19.53 18.71-19.53h168.2z" fill="#efefef"/><path d="m247.32 441.83c-1.4.67-2.81 1.46-3.95 2-13.67 6.68-27.23 13.95-40.76 21.26l-10.61 5.77a7.53 7.53 0 0 1 -2 .43 4 4 0 0 1 -1.88-.42 4.12 4.12 0 0 1 -1.38-1.13l-.14-.26v-.06s0 0-.09-.09l-.51-.33c-.68-.42-1.44-1-2.15-1.51l-2.2-1.49c-.72-.49-1.48-1.12-2.21-1.67-1.49-1.16-3-2.2-4.46-3.45-9.83-7.86-19.71-16.76-29.9-25.24-13.3-10.59-29.27-13.32-36.2-5.48s-1.54 23.87 12.6 35.13a261.34 261.34 0 0 0 36 22.9c1.89 1.05 4 2 6 3 1 .49 2 1 3.06 1.45l3.2 1.39c1.1.45 2.08.92 3.26 1.35l.88.31 1.26.49 2.64 1a26.93 26.93 0 0 0 10.22 1.67 25.85 25.85 0 0 0 9.87-2.31 26.68 26.68 0 0 0 4.36-2.54c1.36-1 2.64-2.11 3.91-3.19l.45-.39.28-.26.55-.53 1.12-1.05 2.22-2.11 4.42-4.22c11.08-10.67 22.12-21.37 32.65-32.36.88-.91 2.06-2 3.13-3.15 1.82-1.94 3.28-4 2.25-5.4s-3.48-.65-5.89.49z" fill="#ef816a"/><path d="m133.09 382s-3.21 16-3.54 26.9 16.45 28.92 16.45 28.92l16.06 41.6-71.72-3.74-1.15-40.05 7.42-23.49s15-5.31 8.79-54.94z" fill="#ed7157"/><circle cx="151.43" cy="317.76" fill="#545c66" r="11.39"/><path d="m110 336c-6.52 3.08-8.6 12.57-4.64 21.21s13.51 12.08 19 10 6.11-10.49 2.15-19.12-9.95-15.19-16.51-12.09z" fill="#d4a893"/><path d="m154.53 379.11 3.31-40.11c1.59-19.18-9.78-35.77-25.38-37.06s-29.54 13.21-31.12 32.39c-5 60.19 34.16 53.7 43.81 54.5s9.38-9.72 9.38-9.72z" fill="#f39886"/><path d="m152.25 344.47a32.43 32.43 0 0 1 .33 5c0 1.65-.06 3.3-.2 5s-.34 3.28-.61 4.91a33.71 33.71 0 0 1 -1.15 4.87 32.43 32.43 0 0 1 -.33-5c0-1.66.05-3.31.2-4.95s.34-3.28.61-4.91a33.71 33.71 0 0 1 1.15-4.92z" fill="#ed7157"/><path d="m144.87 342.65a3.24 3.24 0 0 1 .64 1.25 3.5 3.5 0 0 1 .11 1.2 3.61 3.61 0 0 1 -.3 1.17 3.11 3.11 0 0 1 -.84 1.12 3.14 3.14 0 0 1 -.65-1.25 3.5 3.5 0 0 1 -.11-1.2 3.63 3.63 0 0 1 .31-1.17 3.11 3.11 0 0 1 .84-1.12z" fill="#ed7157"/><path d="m155.49 373.08c-1.13.09-2.21.13-3.32.13a32.9 32.9 0 0 1 -3.29-.13 19.79 19.79 0 0 1 -3.25-.5 8.72 8.72 0 0 1 -3-1.26 8.5 8.5 0 0 0 3.09.79 19.85 19.85 0 0 0 3.18 0c1.07-.06 2.12-.18 3.18-.34s2.11-.35 3.11-.59z" fill="#ed7157"/><path d="m165.45 315.87a5.38 5.38 0 0 0 -1.18-3.33 8.07 8.07 0 0 0 .33-5.35 5.82 5.82 0 0 0 -5.72-4.73 7.42 7.42 0 0 0 -7.42-7.12 7.33 7.33 0 0 0 -1.7.21 7.38 7.38 0 0 0 -8.86-2.72 1.52 1.52 0 0 1 -1.66-.34 7.42 7.42 0 0 0 -9.59-1 1.56 1.56 0 0 1 -1.94-.08 7.34 7.34 0 0 0 -9.27-.35 7.4 7.4 0 0 0 -12.07 2.79 8.32 8.32 0 0 0 -1.13-.11 7.4 7.4 0 0 0 -6.48 11.05 7.31 7.31 0 0 0 -3.39-.85 7.3 7.3 0 0 0 -7.37 8.55 5.47 5.47 0 0 0 -3.76 5.18 5.4 5.4 0 0 0 .31 1.8 5.57 5.57 0 0 1 .19.73 3.54 3.54 0 0 0 -.2 5.75 37.09 37.09 0 0 0 2.13 17.42 50.59 50.59 0 0 0 7.66 13.82c1.74 2.29 3.94 5.39 6 8.8a3 3 0 0 0 -.16.78 3.17 3.17 0 0 0 2.09 3 4.11 4.11 0 0 0 2.38 7 2.78 2.78 0 0 0 -.3 1.25 3 3 0 0 0 3 3 2.53 2.53 0 0 0 .38-.07 1.62 1.62 0 0 0 1.12-.12l2.07-1.11a1.67 1.67 0 0 0 .87-1.38c1.51-28 5.67-30.39 8.2-29a1.64 1.64 0 0 0 2.35-1.34 107.67 107.67 0 0 1 5.19-22.46 1.59 1.59 0 0 1 1.35-1 4.29 4.29 0 0 0 .51.43 5.17 5.17 0 0 0 6.2-.2c.14.12.26.25.41.36a5.37 5.37 0 0 0 7.18-.95 4.84 4.84 0 0 0 .89.79 5.2 5.2 0 0 0 7.24-1.27 4.91 4.91 0 0 0 .33-.59h.18a4.73 4.73 0 0 0 .53.46 5.2 5.2 0 0 0 7.24-1.27 5.62 5.62 0 0 0 .55-1 5.38 5.38 0 0 0 5.32-5.43z" fill="#545c66"/><path d="m104.45 313.65a17.51 17.51 0 0 0 -5.53 1.35 10.58 10.58 0 0 0 -4.21 3.25 8.78 8.78 0 0 0 -1.66 5 7.67 7.67 0 0 0 .4 2.67 6.86 6.86 0 0 0 .57 1.27.94.94 0 0 0 .44.44c.17.1.46.17.54-.11a.32.32 0 0 1 -.2.33.86.86 0 0 1 -.42 0 1.31 1.31 0 0 1 -.74-.39 6.7 6.7 0 0 1 -1-1.2 7.21 7.21 0 0 1 -1-3 8.79 8.79 0 0 1 1.62-6.06 9.94 9.94 0 0 1 5.15-3.5 10.84 10.84 0 0 1 6.04-.05z" fill="#65707d"/><path d="m105.21 316.76a18.87 18.87 0 0 0 -2.65 1.52 10.64 10.64 0 0 0 -2.14 2 7.71 7.71 0 0 0 -1.42 2.47 9 9 0 0 0 -.4 3 5.15 5.15 0 0 1 -.49-3.18 6.43 6.43 0 0 1 1.36-3 7.91 7.91 0 0 1 2.59-2 7.11 7.11 0 0 1 3.15-.81z" fill="#65707d"/><path d="m107.35 319.27a18.75 18.75 0 0 0 -.95 1.83 13 13 0 0 0 -.69 1.89 10.39 10.39 0 0 0 -.35 4 5.39 5.39 0 0 1 -.47-2.06 6.93 6.93 0 0 1 .26-2.12 7.63 7.63 0 0 1 .85-1.94 6.77 6.77 0 0 1 1.35-1.6z" fill="#65707d"/><path d="m108.4 309.82a6 6 0 0 1 -.65-2.62 7.84 7.84 0 0 1 .38-2.68 8 8 0 0 1 1.25-2.41 5.92 5.92 0 0 1 2.07-1.74c-.28.88-.59 1.64-.87 2.42s-.54 1.51-.78 2.26-.47 1.52-.69 2.3-.42 1.59-.71 2.47z" fill="#65707d"/><path d="m112.28 311.43a21 21 0 0 1 7.5-8 22.27 22.27 0 0 1 5-2.34 9.57 9.57 0 0 1 5.47-.43 13 13 0 0 0 -5.16 1.28 34.08 34.08 0 0 0 -4.71 2.48 37.65 37.65 0 0 0 -8.1 7.01z" fill="#65707d"/><path d="m116.21 314.34a4.32 4.32 0 0 1 2.75-1.86 14.07 14.07 0 0 1 3.36-.37 57.13 57.13 0 0 1 6.7.64 17.42 17.42 0 0 0 6.56-.12 6.69 6.69 0 0 0 2.91-1.4 2.42 2.42 0 0 0 .6-3 2.52 2.52 0 0 1 -.4 3.16 6.86 6.86 0 0 1 -3 1.63 16.89 16.89 0 0 1 -6.75.26c-2.23-.28-4.42-.69-6.63-.77a14.54 14.54 0 0 0 -3.3.21 4.29 4.29 0 0 0 -2.8 1.62z" fill="#65707d"/><path d="m122.81 349.21c-1.62-6.15-5.84-7.38-8.91-6.67s-6.2 3.65-4.57 9.8 6 10.43 9.67 9.57 5.43-6.55 3.81-12.7z" fill="#f39886"/><path d="m118.54 430s19-16.33 55.66 26.65l-23.91 29.49s-59.84-28.01-31.75-56.14z" fill="#3f76c2"/><path d="m165.9 453.79a63.84 63.84 0 0 1 -8.9 13.28 60.9 60.9 0 0 1 -5.66 5.7 35.82 35.82 0 0 1 -6.6 4.54c2-1.71 4-3.48 5.86-5.33s3.63-3.82 5.35-5.81 3.38-4 5-6.1 3.34-4.16 4.95-6.28z" fill="#16538c"/><path d="m137.7 425.83.09-.17-4.07-4.72a40.86 40.86 0 0 1 -5.16-.08l-31.94-8.72s-52.15 14.92-36.62 151.41a6.92 6.92 0 0 0 5.26 2.85c6.91.08 7-3.26 12.54-2.12s11.61 6.88 13.47 12.3c2.49 7.27 3 10.38 9.28 19.39a19.88 19.88 0 0 0 6.77 6.19c10.94 5.92 18.88-1 26.67-6.41 5.54-3.82 12.65-7.09 18.79-4.34 5.1 2.28 7.7 7.94 9.4 13.26s3.1 11.09 7.14 15c2.95 2.82 7.89 3.83 11.38 2.26 2.59-55.79-12.7-162.22-43-196.1z" fill="#16538c"/><path d="m136.63 459.25a30.41 30.41 0 0 1 .88 7.85 34 34 0 0 1 -1 7.88 25.81 25.81 0 0 1 -3.19 7.32 20.78 20.78 0 0 1 -5.46 5.71 32.21 32.21 0 0 0 4.53-6.27 18.13 18.13 0 0 0 .85-1.71 16 16 0 0 0 .74-1.76c.21-.61.46-1.2.66-1.8l.53-1.85a46.91 46.91 0 0 0 1.3-7.58 61.18 61.18 0 0 0 .16-7.79z" fill="#3f76c2"/><path d="m118.79 460.09c1.49-.25 3-.46 4.42-.66s2.92-.39 4.36-.66 2.88-.5 4.29-.86a29.37 29.37 0 0 0 4.2-1.37 11.65 11.65 0 0 1 -3.87 2.4 21.63 21.63 0 0 1 -4.39 1.2 28.48 28.48 0 0 1 -4.51.37 21.24 21.24 0 0 1 -4.5-.42z" fill="#3f76c2"/><path d="m98.25 408.9a85.16 85.16 0 0 0 33.85 12.1s-3.67 5.35-.77 13.29c0 0-24.87-3.21-37.39-20.85z" fill="#3f76c2"/><path d="m132.1 420.94s1.52-.55 2.13-.84c0 0 5.9 5.09 6.38 10.06a40.87 40.87 0 0 0 -8.51-9.22z" fill="#3f76c2"/><path d="m427 414.64-173.61-2.95a3.4 3.4 0 0 0 -3.44 3.63l7.33 109.12a4.11 4.11 0 0 0 4.1 3.75l165.62-.34a4.12 4.12 0 0 0 4.11-4.12l-.21-105a4.13 4.13 0 0 0 -3.9-4.09z" fill="#4d95e2"/><path d="m396.44 525.31 21.19 22.12-2.94-22.16z" fill="#4d95e2"/><path d="m248 512.3c-1.66-.52-3.42-.95-4.77-1.36-16.29-4.93-32.91-9.43-49.42-14l-16-4.51-4-1.14-3.84-1.16c-.62-.2-1.3-.39-1.88-.58l-1.69-.59-.83-.29a3.6 3.6 0 0 1 -.34-.13l-.12-.09a3.73 3.73 0 0 1 -.43-.36l-.61-.45-.88-.58-1.76-1.14a7.5 7.5 0 0 1 -.91-.63l-.94-.7-1.86-1.37c-.62-.47-1.23-.87-1.86-1.39l-1.89-1.53c-1.26-1-2.52-2-3.78-3.07-10.74-9.1-21.38-19.48-32.28-29.6-14.13-12.72-31.07-17.63-38.49-10.29s-1.79 25 13.37 38.53a278 278 0 0 0 39 28c1.64 1 3.42 1.92 5.11 2.87l2.57 1.41c.86.47 1.82.9 2.72 1.34l2.75 1.32 1.37.65c.45.22.9.43 1.43.63l6.31 2.49c1.19.33 2.38.61 3.56.92l.88.22c.28.07.45.07.68.11l1.22.16 2.41.3c.79.1 1.49.14 2.24.21 1.46.13 2.95.27 4.39.36l4.29.28c5.71.34 11.34.57 17 .77 17.32.53 34.56.82 51.61.48h5c3-.1 5.75-.52 6-2.26s-2.46-2.94-5.33-3.83z" fill="#f4a494"/><path d="m85.25 430.66s20.69-14 52.21 32.88l-27.14 26.55s-56.22-34.71-25.07-59.43z" fill="#3f76c2"/><path d="m107.53 484.91a47.67 47.67 0 0 1 4.06-6.85 49.78 49.78 0 0 1 5.07-6.17 34.91 34.91 0 0 1 6.13-5.17 18.7 18.7 0 0 1 7.39-3 27.29 27.29 0 0 0 -6.76 3.89 49.35 49.35 0 0 0 -5.77 5.24c-1.83 1.86-3.53 3.85-5.2 5.86s-3.32 4.08-4.92 6.2z" fill="#16538c"/><path d="m248 516.64s27.56-2.55 33.69-6.59" fill="#e0942e"/><path d="m280.5 509.94a5.87 5.87 0 0 1 -.78.22 66.73 66.73 0 0 1 -8.7.95l-9.45.44c-2.61.12-5.27.21-7.89.47-3.36.4-5.91 2.43-5.71 4.62s3.19 3.69 6.64 3.28a78.83 78.83 0 0 0 7.95-1.62c3.17-.8 6.3-1.73 9.37-2.82a43 43 0 0 0 8.41-3.88 5 5 0 0 0 .75-.53c.44-.35.78-.72.57-1s-.66-.26-1.16-.13z" fill="#f4a494"/><path d="m246.32 518.24c.2.22.43.39.59.58 2 2.17 3.79 4.22 5.45 6.31l5 6.39a33.48 33.48 0 0 0 4.08 4.68 2.55 2.55 0 0 0 2 .31 8.77 8.77 0 0 0 2.77-1.07 24.64 24.64 0 0 0 6.51-5.61 18.15 18.15 0 0 0 4-7.61 7.55 7.55 0 0 0 0-3.24 3.85 3.85 0 0 0 -1.43-2.21 27 27 0 0 0 -7.77-3 40.16 40.16 0 0 0 -10.14-1 33.24 33.24 0 0 0 -9.48 1.46c-.26.09-.58.14-.89.27a1.89 1.89 0 0 0 -1.22 1.73 2.27 2.27 0 0 0 .53 2.01z" fill="#f4a494"/><path d="m260 421.57c-.25.09-.49.21-.7.28a23.39 23.39 0 0 0 -7 4 14.17 14.17 0 0 0 -3.07 3.74c-.71 1.21-1.4 2.44-2 3.7a46.11 46.11 0 0 0 -2.73 6.47c-.87 2.9.31 5.75 2.47 6.21s4.37-1.29 5.16-4c.56-2.1 1-4.25 1.51-6.37l.92-3.84a10.86 10.86 0 0 1 1.17-3.07 28.64 28.64 0 0 1 4.49-5.61l.51-.52c.31-.32.55-.67.35-1s-.69-.14-1.08.01z" fill="#ef816a"/><path d="m285.55 458.86q15.24-1 30.47-1.52c10.16-.4 20.32-.66 30.48-.9s20.33-.38 30.5-.42 20.33 0 30.5.21q-15.22 1-30.47 1.52c-10.15.4-20.32.66-30.48.9s-20.32.37-30.49.42-20.33 0-30.51-.21z" fill="#d0e4f7"/><path d="m288.72 481.75q11.61-.33 23.21-.23c7.74 0 15.47.21 23.19.4s15.46.49 23.18.88 15.45.87 23.17 1.51q-11.61.33-23.21.23c-7.74 0-15.47-.21-23.2-.4s-15.45-.5-23.18-.89-15.44-.86-23.16-1.5z" fill="#d0e4f7"/><path d="m284.16 436q15.22-1 30.47-1.53c10.16-.39 20.32-.66 30.48-.9s20.33-.37 30.49-.42 20.34 0 30.51.21q-15.23 1-30.47 1.52c-10.16.4-20.32.67-30.48.91s-20.33.37-30.49.41-20.34.03-30.51-.2z" fill="#d0e4f7"/><rect fill="#5ea4e6" height="110.33" rx="9.28" transform="matrix(.95 -.32 .32 .95 -136.22 226.07)" width="120.2" x="566.39" y="476.42"/><path d="m587.36 540.72c-.3-.07-.58-.08-.82-.14-2.89-.63-5.59-1-8.24-1.45a81 81 0 0 0 -8.12-.94 22.4 22.4 0 0 0 -6.16.2c-2.34.8-2.4 7.07-.39 14.19s6.2 12.14 9 11.17a22 22 0 0 0 5.79-4.15 44.57 44.57 0 0 0 5.94-6.76 46 46 0 0 0 4.55-7.54c.11-.23.27-.47.39-.76a2.46 2.46 0 0 0 -.29-2.26 2.59 2.59 0 0 0 -1.65-1.56z" fill="#ffcca9"/><path d="m563.63 547.43a16.59 16.59 0 0 1 3.61-2.66 27.52 27.52 0 0 1 4.09-1.88 30.88 30.88 0 0 1 4.34-1.17c.73-.16 1.47-.23 2.21-.34s1.49-.12 2.24-.14c-1.45.38-2.88.73-4.3 1.13s-2.82.85-4.2 1.34-2.74 1-4.08 1.65a36.62 36.62 0 0 0 -3.91 2.07z" fill="#ec725b"/><path d="m568.7 558.64c1.21-.47 2.37-1 3.53-1.54s2.31-1.1 3.42-1.72c2.25-1.19 4.4-2.55 6.59-3.94a21 21 0 0 1 -2.89 2.6 25.8 25.8 0 0 1 -3.29 2.1 21.69 21.69 0 0 1 -7.36 2.5z" fill="#ec725b"/><path d="m566.29 553.13c2.45-1.36 4.94-2.61 7.42-3.88s4.94-2.55 7.48-3.75a40.17 40.17 0 0 1 -7.09 4.5 42.11 42.11 0 0 1 -7.81 3.13z" fill="#ec725b"/><path d="m404.55 263 175-18.71a4.12 4.12 0 0 1 4.55 4.22l-3.5 113.81a4.12 4.12 0 0 1 -3.87 4l-165.36 9.68a4.12 4.12 0 0 1 -4.35-3.87l-6.14-104.8a4.11 4.11 0 0 1 3.67-4.33z" fill="#275b99"/><path d="m441.71 371.61-19.82 23.36 1.6-22.3z" fill="#275b99"/><circle cx="637.83" cy="525.72" fill="#3f76c2" r="9.77"/><path d="m682.12 379.65s3.34 16.63 3.68 28-17.12 30.12-17.12 30.12l-16.68 43.28 74.61-3.89 1.2-41.68-7.74-24.48s-15.58-5.53-9.14-57.17z" fill="#f39570"/><path d="m706.1 331.81c6.79 3.2 8.95 13.08 4.83 22.06s-14.06 12.58-19.75 10.46-6.36-10.92-2.24-19.9 10.38-15.83 17.16-12.62z" fill="#d4a893"/><path d="m659.81 376.68-3.45-41.68c-1.65-20 10.18-37.22 26.41-38.56s30.74 13.75 32.39 33.7c5.17 62.63-35.55 55.88-45.59 56.71s-9.76-10.17-9.76-10.17z" fill="#ffc69e"/><path d="m662.18 340.63a33.85 33.85 0 0 1 1.19 5.07c.29 1.69.51 3.4.65 5.11s.21 3.42.2 5.14a33.81 33.81 0 0 1 -.34 5.2 33.89 33.89 0 0 1 -1.2-5.07c-.28-1.7-.5-3.4-.64-5.11s-.21-3.42-.2-5.15a33.76 33.76 0 0 1 .34-5.19z" fill="#ec725b"/><path d="m729.1 310.58s-2.08-4.22-4.64-3.64-15.35 11-15.35 11z" fill="#313539"/><path d="m669.86 338.74a3.28 3.28 0 0 1 .88 1.17 3.72 3.72 0 0 1 .2 2.46 3.24 3.24 0 0 1 -.67 1.3 3.28 3.28 0 0 1 -.88-1.17 3.55 3.55 0 0 1 -.31-1.21 3.81 3.81 0 0 1 .11-1.25 3.24 3.24 0 0 1 .67-1.3z" fill="#ec725b"/><path d="m659.15 365.56c1 .26 2.11.48 3.18.66s2.17.33 3.26.43a47 47 0 0 0 6.61.22 47.36 47.36 0 0 1 -6.64.77q-1.68.09-3.36.06c-1.14 0-2.24-.07-3.41-.19z" fill="#ec725b"/><path d="m644.05 308.41c.71 8.27 8.48 14.35 17.36 13.6s15.52-8.06 14.82-16.33-8.47-14.34-17.36-13.59a16.11 16.11 0 0 0 -14.31 11.22 13.82 13.82 0 0 0 -.51 2.8 14.72 14.72 0 0 0 0 2.3z" fill="#313539"/><path d="m698.84 319.54c-11.07 20.26 3 45.76 7 55.64l3.56.4c2.31-8.61 8.3-16.76 12.39-21.58a46.65 46.65 0 0 0 10-19.27c2.46-10.48.47-18.54-2.64-24.15" fill="#444951"/><path d="m665.81 293.75c3.87 2.67 33.56-19.62 52.12 5.93 0 0 10.13-3.34 14.39 6.51a4.62 4.62 0 0 0 -4-1s4.22 1.51 3.65 7.62c0 0-2-4.6-6.13-3.88a5.65 5.65 0 0 1 3.08 5.35 4.43 4.43 0 0 0 -4.09-3s-3.94 3.56-12.95 4.56c-10 1.1-17.72 4-26.66 4.95-13.06 1.44-30.4 2.59-33.57-1" fill="#313539"/><path d="m692.81 345.57c1.69-6.4 6.08-7.69 9.28-6.94s6.44 3.79 4.75 10.19-6.19 10.86-10.07 10-5.64-6.82-3.96-13.25z" fill="#ffc69e"/><path d="m752.71 571.55c-7.75.09-11-13.23-18.65-12.18-3.91.53-6.15 4.68-7.34 8.45-2.78 8.82-3.29 18.29-6.68 26.9s-11 16.68-20.22 16.39c-7-.23-12.85-5.05-18.61-9s-13.17-7.36-19.56-4.5c-5.31 2.37-8 8.26-9.78 13.8s-3.23 11.53-7.43 15.55c-3.07 2.94-8.21 4-11.84 2.36-2.82-60.09 7.67-146.93 43.68-202.62l43.79-15.7s56.34 20.57 38.12 157.55a7.21 7.21 0 0 1 -5.48 3z" fill="#00947a"/><path d="m530.26 398.8c.68 2.12 1.57 4.27 2.15 6a208.27 208.27 0 0 0 13.74 30.11 318 318 0 0 0 17.67 28.38q5 7.31 10.48 14.36 1.35 1.77 2.73 3.51l.69.88 1.13 1.3c.79.89 1.65 1.71 2.49 2.56a42.5 42.5 0 0 0 11.83 8.19 53.51 53.51 0 0 0 14.05 4.33 79 79 0 0 0 12.17 1.16 145.86 145.86 0 0 0 20.73-1.23c5.19-.63 10.1-1.35 14.66-2 2.28-.31 4.49-.61 6.54-.85s4-.43 5.72-.52l1.38-.08 1.61-.16a12.29 12.29 0 0 0 1.72-.25c2.76-.61 3.35-.67 4.63-.91l7-1.33c4.68-.91 9.34-1.88 14-2.94 23.69-6 39.63-23.72 35.61-39.55s-26.47-23.76-50.15-17.76q-6.89 1.92-13.69 4.07l-6.81 2.18c-1 .35-2.73.87-2.28.84a.14.14 0 0 1 0 .07s0 0 0 0l-.13.06-2.14.48c-3 .69-5.68 1.45-8.23 2.23s-5 1.58-7.29 2.37l-12.85 4.5c-4.8 1.64-9.29 3.08-13 4-1.86.45-3.52.78-4.85 1-.28.06-.41.16-.61.19a4.36 4.36 0 0 1 -.59.17 5.91 5.91 0 0 1 -1.26.2 7.81 7.81 0 0 1 -2.73-.29c-.24-.07-.46-.15-.69-.24a3.12 3.12 0 0 1 -.39-.18l-.83-.6-3.31-2.43q-6.63-4.86-13.08-9.92c-8.13-6.34-16-13-23.65-19.95s-15-14.2-21.91-21.88c-1.13-1.28-2.46-3-3.89-4.62-2.32-2.76-4.93-5.11-7.39-3.91s-2.05 4.78-.98 8.46z" fill="#1da089"/><path d="m510.22 360c-.09.22-.12.43-.18.61a33.81 33.81 0 0 0 -1.4 6.35 32.23 32.23 0 0 0 -.26 6.63 16.08 16.08 0 0 0 1 5.16c1 2 5.81 1.41 10.51-1.38s7.85-6.16 7-7.78a16.81 16.81 0 0 0 -3.19-3.24c-1.47-1.24-3.1-2.44-4.82-3.63s-3.28-2.28-5.14-3.41c-.16-.09-.31-.23-.51-.35a2 2 0 0 0 -1.69 0 1.83 1.83 0 0 0 -1.32 1.04z" fill="#ffcca9"/><path d="m533.31 393.35c-.06-.29-.18-.55-.23-.78l-2.11-8c-.67-2.71-1.33-5.35-2-7.91a51.52 51.52 0 0 0 -1.66-5.89c-.48-1.11-2-1.65-3.91-1.79a18.88 18.88 0 0 0 -7.09 1 12.31 12.31 0 0 0 -6 4 5.17 5.17 0 0 0 -.88 5.27 27.09 27.09 0 0 0 5.11 6.31 42.8 42.8 0 0 0 7.61 5.76 44 44 0 0 0 8 3.85c.23.08.5.21.79.3a1.57 1.57 0 0 0 1.74-.49 1.68 1.68 0 0 0 .63-1.63z" fill="#ffcca9"/><path d="m526.1 397.75 11.74-10.2" fill="none" stroke="#d0e4f7" stroke-miterlimit="10" stroke-width="7.2"/><path d="m523.2 374.79a27.35 27.35 0 0 0 -1-3.09c-.41-1-.85-2-1.34-3s-1-1.92-1.56-2.85-1.14-1.85-1.72-2.79a19.72 19.72 0 0 1 2.13 2.52 22 22 0 0 1 1.72 2.83 15.82 15.82 0 0 1 1.77 6.38z" fill="#ec725b"/><path d="m514.07 378a16.17 16.17 0 0 1 -2.65-5.07 17.35 17.35 0 0 1 -.92-5.66c.47 1.86.92 3.67 1.52 5.46.28.89.62 1.77 1 2.65s.65 1.78 1.05 2.62z" fill="#ec725b"/><path d="m516.85 374a31.61 31.61 0 0 1 -2.59-5.64 29.71 29.71 0 0 1 -1.49-6c.74 1.94 1.4 3.88 2.09 5.82s1.37 3.82 1.99 5.82z" fill="#ec725b"/><path d="m644.33 292.8a54.93 54.93 0 0 0 .18 10.62 19.19 19.19 0 0 0 3.08 8.85 13.45 13.45 0 0 0 7.53 4.82 63.06 63.06 0 0 0 10.48 1.56 22.23 22.23 0 0 1 -11.12 2.2 15.33 15.33 0 0 1 -5.91-1.59 13.7 13.7 0 0 1 -4.9-4.12 15.77 15.77 0 0 1 -2.54-5.71 19.92 19.92 0 0 1 -.43-5.93 23.14 23.14 0 0 1 1.13-5.64 18.52 18.52 0 0 1 2.5-5.06z" fill="#313539"/><path d="m695.33 315.28a52.42 52.42 0 0 1 -12.62 5.64 68.55 68.55 0 0 1 -13.56 2.76 55.34 55.34 0 0 1 -14-.31 32 32 0 0 1 -13.07-4.95 114.79 114.79 0 0 0 13.38.42c4.37-.1 8.72-.52 13.09-.9s8.75-1 13.18-1.44 8.95-.97 13.6-1.22z" fill="#313539"/><path d="m654.1 496.83c6.21-.65 12.4-1.55 18.53-2.7s12.23-2.47 18.24-4.11a143.63 143.63 0 0 0 17.6-6.13l4.23-1.95 4.06-2.24c.33-.19.68-.36 1-.58l1-.64 1.91-1.3a24.93 24.93 0 0 0 3.63-2.81 28.14 28.14 0 0 0 5.7-7.1 25.88 25.88 0 0 0 3.08-8.55 24.12 24.12 0 0 0 -.14-9.08 20.82 20.82 0 0 0 -3.61-8.29 21.81 21.81 0 0 0 -6.85-6 35.77 35.77 0 0 0 -8.58-3.39c-6-1.63-12.3-1.94-18.54-2l4.69-.14c1.56 0 3.13.1 4.69.14s3.13.29 4.69.43l2.32.39a23.2 23.2 0 0 1 2.32.46l2.28.59c.77.19 1.5.51 2.25.76l1.11.4c.37.14.72.33 1.09.49.7.35 1.45.64 2.13 1a22.82 22.82 0 0 1 7.29 6.12 21.05 21.05 0 0 1 3.94 8.7 25.36 25.36 0 0 1 .22 9.55 27.32 27.32 0 0 1 -3.18 9 29.27 29.27 0 0 1 -5.93 7.49 27.78 27.78 0 0 1 -3.79 2.9l-2 1.31-1 .66c-.34.21-.69.38-1 .58l-4.16 2.25-4.3 1.95a126.29 126.29 0 0 1 -17.84 6 201.4 201.4 0 0 1 -37.08 5.84z" fill="#006750"/><circle cx="607.31" cy="535.49" fill="#3965af" r="9.77"/><path d="m438.82 316q15-2.56 30.14-4.71c10.06-1.46 20.14-2.79 30.22-4.1s20.17-2.5 30.28-3.61 20.22-2.14 30.36-3q-15 2.56-30.14 4.71c-10.06 1.46-20.14 2.79-30.22 4.1s-20.18 2.5-30.28 3.6-20.18 2.11-30.36 3.01z" fill="#d0e4f7"/><path d="m444.37 338.38q11.5-1.53 23.06-2.65c7.69-.77 15.4-1.42 23.1-2s15.43-1.13 23.15-1.55 15.45-.76 23.19-.93q-11.5 1.55-23.06 2.66c-7.69.77-15.4 1.42-23.1 2s-15.43 1.13-23.15 1.55-15.45.75-23.19.92z" fill="#d0e4f7"/><path d="m435 293.39q15-2.56 30.14-4.71c10.06-1.46 20.14-2.79 30.22-4.1s20.17-2.5 30.28-3.61 20.22-2.14 30.36-3q-15 2.58-30.14 4.72c-10.06 1.46-20.14 2.79-30.22 4.09s-20.18 2.5-30.28 3.61-20.18 2.14-30.36 3z" fill="#d0e4f7"/></svg>